HIERARCHY
ROOT Junyuan_V1:Solving:Hips
{
	OFFSET 0.000000 0.000000 0.000000
	CHANNELS 6 Xposition Yposition Zposition Xrotation Yrotation Zrotation
	JOINT Junyuan_V1:Solving:Spine
	{
		OFFSET 0.000000 -8.943189 2.778120
		CHANNELS 6 Xposition Yposition Zposition Xrotation Yrotation Zrotation
		JOINT Junyuan_V1:Solving:Spine1
		{
			OFFSET 0.000000 -9.944814 1.753542
			CHANNELS 6 Xposition Yposition Zposition Xrotation Yrotation Zrotation
			JOINT Junyuan_V1:Solving:Spine2
			{
				OFFSET 0.000000 -10.059801 0.880121
				CHANNELS 6 Xposition Yposition Zposition Xrotation Yrotation Zrotation
				JOINT Junyuan_V1:Solving:Spine3
				{
					OFFSET 0.000000 -10.098228 0.000000
					CHANNELS 6 Xposition Yposition Zposition Xrotation Yrotation Zrotation
					JOINT Junyuan_V1:Solving:Neck
					{
						OFFSET 0.000000 -12.983437 -1.298342
						CHANNELS 6 Xposition Yposition Zposition Xrotation Yrotation Zrotation
						JOINT Junyuan_V1:Solving:Neck1
						{
							OFFSET 0.000000 -8.085114 -0.707354
							CHANNELS 6 Xposition Yposition Zposition Xrotation Yrotation Zrotation
							JOINT Junyuan_V1:Solving:Head
							{
								OFFSET 0.000000 -7.992695 -1.409326
								CHANNELS 6 Xposition Yposition Zposition Xrotation Yrotation Zrotation
								JOINT Junyuan_V1:Solving:HeadEnd
								{
									OFFSET 0.000000 -9.728081 0.000002
									CHANNELS 6 Xposition Yposition Zposition Xrotation Yrotation Zrotation
									End Site
									{
										OFFSET 0.000000 -9.728081 0.000002
									}
								}
							}
						}
					}
					JOINT Junyuan_V1:Solving:RightShoulder
					{
						OFFSET 0.000000 -9.273884 -6.154356
						CHANNELS 6 Xposition Yposition Zposition Xrotation Yrotation Zrotation
						JOINT Junyuan_V1:Solving:RightArm
						{
							OFFSET -19.110832 -0.000008 0.000000
							CHANNELS 6 Xposition Yposition Zposition Xrotation Yrotation Zrotation
							JOINT Junyuan_V1:Solving:RightForeArm
							{
								OFFSET -27.916382 -0.000008 0.000000
								CHANNELS 6 Xposition Yposition Zposition Xrotation Yrotation Zrotation
								JOINT Junyuan_V1:Solving:RightHand
								{
									OFFSET -21.757072 -0.000008 0.000000
									CHANNELS 6 Xposition Yposition Zposition Xrotation Yrotation Zrotation
									JOINT Junyuan_V1:Solving:RightHandThumb1
									{
										OFFSET -3.656471 2.766285 -2.718907
										CHANNELS 6 Xposition Yposition Zposition Xrotation Yrotation Zrotation
										End Site
										{
											OFFSET -5.307442 0.000000 -5.356520
										}
									}
									JOINT Junyuan_V1:Solving:RightHandMiddle1
									{
										OFFSET -9.750572 -0.000004 0.062504
										CHANNELS 6 Xposition Yposition Zposition Xrotation Yrotation Zrotation
										End Site
										{
											OFFSET -7.540642 -0.000004 0.000000
										}
									}
								}
							}
						}
					}
					JOINT Junyuan_V1:Solving:LeftShoulder
					{
						OFFSET 0.000000 -9.273884 -6.154356
						CHANNELS 6 Xposition Yposition Zposition Xrotation Yrotation Zrotation
						JOINT Junyuan_V1:Solving:LeftArm
						{
							OFFSET 19.110832 -0.000008 0.000000
							CHANNELS 6 Xposition Yposition Zposition Xrotation Yrotation Zrotation
							JOINT Junyuan_V1:Solving:LeftForeArm
							{
								OFFSET 27.916382 -0.000008 0.000000
								CHANNELS 6 Xposition Yposition Zposition Xrotation Yrotation Zrotation
								JOINT Junyuan_V1:Solving:LeftHand
								{
									OFFSET 21.757072 -0.000008 0.000000
									CHANNELS 6 Xposition Yposition Zposition Xrotation Yrotation Zrotation
									JOINT Junyuan_V1:Solving:LeftHandThumb1
									{
										OFFSET 3.656471 2.766285 -2.718907
										CHANNELS 6 Xposition Yposition Zposition Xrotation Yrotation Zrotation
										End Site
										{
											OFFSET 5.307442 0.000000 -5.356520
										}
									}
									JOINT Junyuan_V1:Solving:LeftHandMiddle1
									{
										OFFSET 9.750572 -0.000004 0.062504
										CHANNELS 6 Xposition Yposition Zposition Xrotation Yrotation Zrotation
										End Site
										{
											OFFSET 7.540642 -0.000004 0.000000
										}
									}
								}
							}
						}
					}
				}
			}
		}
	}
	JOINT Junyuan_V1:Solving:RightUpLeg
	{
		OFFSET -8.521003 0.000000 0.000000
		CHANNELS 6 Xposition Yposition Zposition Xrotation Yrotation Zrotation
		JOINT Junyuan_V1:Solving:RightLeg
		{
			OFFSET 0.000000 41.622898 -0.000006
			CHANNELS 6 Xposition Yposition Zposition Xrotation Yrotation Zrotation
			JOINT Junyuan_V1:Solving:RightFoot
			{
				OFFSET 0.000000 37.258389 -0.000006
				CHANNELS 6 Xposition Yposition Zposition Xrotation Yrotation Zrotation
				JOINT Junyuan_V1:Solving:RightForeFoot
				{
					OFFSET 0.000000 3.234154 -0.000000
					CHANNELS 6 Xposition Yposition Zposition Xrotation Yrotation Zrotation
					JOINT Junyuan_V1:Solving:RightToeBase
					{
						OFFSET 0.000000 0.000000 -12.665958
						CHANNELS 6 Xposition Yposition Zposition Xrotation Yrotation Zrotation
						JOINT Junyuan_V1:Solving:RightToeBaseEnd
						{
							OFFSET 0.000000 0.000000 -2.833065
							CHANNELS 6 Xposition Yposition Zposition Xrotation Yrotation Zrotation
							End Site
							{
								OFFSET 0.000000 -2.833061 0.000002
							}
						}
					}
				}
			}
		}
	}
	JOINT Junyuan_V1:Solving:LeftUpLeg
	{
		OFFSET 8.521003 0.000000 0.000000
		CHANNELS 6 Xposition Yposition Zposition Xrotation Yrotation Zrotation
		JOINT Junyuan_V1:Solving:LeftLeg
		{
			OFFSET 0.000000 41.622898 -0.000006
			CHANNELS 6 Xposition Yposition Zposition Xrotation Yrotation Zrotation
			JOINT Junyuan_V1:Solving:LeftFoot
			{
				OFFSET 0.000000 37.258389 -0.000006
				CHANNELS 6 Xposition Yposition Zposition Xrotation Yrotation Zrotation
				JOINT Junyuan_V1:Solving:LeftForeFoot
				{
					OFFSET 0.000000 3.234154 -0.000000
					CHANNELS 6 Xposition Yposition Zposition Xrotation Yrotation Zrotation
					JOINT Junyuan_V1:Solving:LeftToeBase
					{
						OFFSET 0.000000 0.000000 -12.665958
						CHANNELS 6 Xposition Yposition Zposition Xrotation Yrotation Zrotation
						JOINT Junyuan_V1:Solving:LeftToeBaseEnd
						{
							OFFSET 0.000000 0.000000 -4.326123
							CHANNELS 6 Xposition Yposition Zposition Xrotation Yrotation Zrotation
							End Site
							{
								OFFSET 0.000000 -4.326126 0.000000
							}
						}
					}
				}
			}
		}
	}
}
MOTION
Frames: 4
Frame Time: 0.041667
21.824312 48.563118 -88.480896 89.043516 168.310191 -2.211065 -0.000001 -8.943174 2.778113 14.133712 -0.350471 -0.743693 0.000002 -9.944818 1.753536 -0.160880 0.122410 -0.081366 0.000001 -10.059796 0.880110 -5.117128 2.689993 -0.700760 -0.000002 -10.098220 0.000005 -4.011767 0.491412 -0.990291 -0.000005 -12.983461 -1.298332 6.180760 -0.310450 4.346052 -0.000000 -8.085137 -0.707374 -6.100111 -2.330530 -0.845564 -0.000000 -7.992661 -1.409337 -5.048154 -0.028767 -0.503818 -0.000002 -9.728058 -0.000006 0.000000 0.000000 -0.000000 -0.000006 -9.273884 -6.154346 -0.000009 21.742727 14.925420 -19.110811 -0.000015 -0.000001 -3.457568 -16.714696 -92.929997 -27.916374 0.000001 0.000007 14.985732 -20.930509 5.462331 -21.757107 -0.000014 -0.000001 1.107663 2.996948 -20.295033 -3.656446 2.766292 -2.718926 0.000000 0.000003 -0.000006 -9.750565 0.000017 0.062498 0.000002 -0.000002 0.000000 0.000001 -9.273884 -6.154346 -0.000007 -16.644831 -15.352775 19.110830 -0.000008 0.000020 -4.440340 35.162377 89.919741 27.916388 0.000007 0.000010 16.301208 25.124154 -7.077959 21.757059 -0.000005 -0.000002 -0.001857 0.005604 18.287524 3.656453 2.766275 -2.718905 0.000003 0.000003 0.000006 9.750564 -0.000004 0.062505 0.000000 0.000003 -0.000001 -8.521004 0.000011 0.000002 3.552522 17.723091 -0.064631 -0.000003 41.622894 0.000000 0.656645 -0.000000 0.000000 -0.000004 37.258373 -0.000018 2.799898 -3.398016 8.900273 0.000000 3.234146 0.000006 -0.000000 -0.000000 -0.000001 -0.000002 -0.000018 -12.665965 -2.750215 -0.000000 0.000001 0.000002 -0.000015 -2.833056 -0.000000 0.000000 -0.000001 8.521003 0.000022 -0.000005 -13.120174 -7.955073 -6.622497 -0.000003 41.622868 -0.000002 24.986558 -0.000000 0.000003 0.000001 37.258392 -0.000004 2.855924 13.432773 17.458921 -0.000001 3.234146 0.000003 0.000001 -0.000000 0.000002 0.000002 -0.000004 -12.665947 0.205223 0.000002 0.000005 0.000001 -0.000009 -4.326114 -0.000003 0.000002 -0.000001 
21.765942 48.457882 -88.465958 89.027554 168.444855 -2.153945 0.000007 -8.943195 2.778116 14.133841 -0.365366 -0.761070 -0.000002 -9.944818 1.753536 -0.159554 0.120959 -0.077428 0.000002 -10.059808 0.880122 -5.115708 2.647472 -0.702268 0.000000 -10.098240 -0.000001 -4.024347 0.487721 -1.010293 0.000003 -12.983449 -1.298361 6.147753 -0.358535 4.345706 0.000003 -8.085104 -0.707364 -6.078516 -2.373487 -0.835365 0.000001 -7.992687 -1.409330 -5.013348 -0.041196 -0.481835 0.000001 -9.728050 0.000003 0.000000 0.000002 0.000000 -0.000003 -9.273933 -6.154377 -0.000009 21.576747 14.846338 -19.110806 -0.000026 0.000004 -3.376773 -18.045804 -93.403834 -27.916344 -0.000009 0.000006 13.383417 -21.649032 5.016354 -21.757078 -0.000013 0.000010 1.306969 3.330989 -21.437809 -3.656463 2.766287 -2.718903 0.000002 -0.000000 0.000000 -9.750573 0.000011 0.062505 -0.000004 -0.000001 -0.000001 0.000001 -9.273911 -6.154378 -0.000006 -16.562254 -15.332909 19.110823 -0.000005 0.000005 -4.357225 35.915361 90.386926 27.916433 0.000002 0.000003 15.808174 25.963499 -7.065878 21.757063 -0.000015 -0.000003 0.019582 -0.059016 18.353212 3.656477 2.766284 -2.718911 -0.000003 0.000005 0.000008 9.750589 -0.000003 0.062496 0.000001 0.000001 0.000002 -8.520994 0.000005 -0.000004 3.623809 17.764793 -0.089716 -0.000009 41.622906 -0.000001 0.640710 -0.000000 0.000000 0.000007 37.258396 0.000005 2.751917 -3.532504 8.822946 -0.000005 3.234146 -0.000003 -0.000001 0.000000 -0.000000 -0.000002 0.000010 -12.665969 -2.711978 0.000000 -0.000000 -0.000004 -0.000008 -2.833058 -0.000000 0.000000 0.000001 8.521007 -0.000014 -0.000009 -13.207833 -8.189366 -6.725885 -0.000003 41.622894 -0.000010 24.184436 0.000001 0.000001 0.000001 37.258389 -0.000015 2.926915 13.139745 17.189105 -0.000002 3.234146 0.000013 0.000002 -0.000001 -0.000000 0.000001 -0.000009 -12.665955 0.163235 -0.000001 0.000003 -0.000000 -0.000016 -4.326137 -0.000004 -0.000002 -0.000000 
21.703493 48.350834 -88.449242 89.007945 168.575148 -2.095801 0.000002 -8.943174 2.778131 14.133491 -0.372116 -0.777314 -0.000001 -9.944784 1.753552 -0.155720 0.120739 -0.077548 -0.000003 -10.059808 0.880121 -5.120638 2.606649 -0.699773 0.000000 -10.098207 -0.000010 -4.035663 0.490423 -1.028267 0.000002 -12.983464 -1.298351 6.126045 -0.418427 4.359346 0.000001 -8.085121 -0.707358 -6.069579 -2.404088 -0.832642 -0.000001 -7.992683 -1.409311 -4.992135 -0.048005 -0.472322 0.000000 -9.728065 0.000007 0.000000 0.000000 -0.000000 -0.000003 -9.273911 -6.154374 -0.000012 21.383951 14.784597 -19.110825 -0.000034 0.000001 -3.319816 -19.364715 -93.885998 -27.916386 -0.000014 -0.000008 11.886848 -22.330200 4.572530 -21.757086 -0.000000 -0.000003 1.499386 3.617985 -22.528573 -3.656433 2.766277 -2.718908 0.000002 -0.000000 -0.000009 -9.750563 0.000012 0.062504 -0.000004 -0.000001 0.000002 0.000003 -9.273907 -6.154370 -0.000007 -16.495283 -15.297884 19.110821 -0.000002 0.000009 -4.229240 36.822277 90.770011 27.916407 -0.000001 0.000010 15.187730 26.938889 -7.011254 21.757050 -0.000012 0.000003 0.101195 -0.310274 18.063863 3.656474 2.766288 -2.718905 0.000000 -0.000009 0.000003 9.750579 0.000013 0.062507 0.000003 0.000002 -0.000001 -8.520997 0.000015 0.000004 3.706788 17.740144 -0.120098 0.000002 41.622902 -0.000004 0.588063 -0.000001 0.000000 0.000003 37.258377 -0.000009 2.706201 -3.593974 8.731448 -0.000009 3.234138 0.000007 -0.000001 -0.000000 -0.000001 0.000000 0.000005 -12.665954 -2.553217 -0.000000 -0.000001 -0.000007 -0.000008 -2.833067 -0.000001 -0.000000 -0.000000 8.521003 -0.000004 0.000004 -13.276790 -8.411456 -6.804962 -0.000003 41.622875 -0.000006 23.317082 -0.000004 -0.000000 0.000004 37.258404 -0.000006 3.041937 12.757347 16.984606 -0.000002 3.234146 -0.000002 -0.000001 0.000001 0.000001 0.000003 0.000010 -12.665960 0.212745 0.000001 0.000001 0.000003 -0.000008 -4.326120 -0.000002 0.000001 0.000001 
21.660484 48.230186 -88.440269 89.020437 168.669049 -1.861126 -0.000000 -8.943213 2.778142 14.159833 -0.390864 -0.969649 0.000000 -9.944821 1.753539 -0.142951 0.118240 -0.068678 0.000003 -10.059801 0.880128 -5.127459 2.581108 -0.710405 -0.000006 -10.098221 0.000001 -4.053015 0.482034 -1.048579 -0.000006 -12.983393 -1.298323 6.124680 -0.440326 4.369371 0.000000 -8.085114 -0.707354 -6.074755 -2.424151 -0.821883 0.000001 -7.992677 -1.409323 -5.005487 -0.048019 -0.473903 0.000002 -9.728081 -0.000001 0.000000 -0.000000 -0.000000 -0.000004 -9.273888 -6.154336 -0.000010 21.158565 14.619977 -19.110802 0.000007 -0.000000 -3.037233 -22.423588 -93.932129 -27.916378 -0.000010 0.000013 8.675700 -23.867309 3.532953 -21.757063 -0.000010 -0.000002 1.930130 4.592359 -22.826321 -3.656489 2.766270 -2.718910 0.000004 0.000005 -0.000003 -9.750576 0.000001 0.062504 0.000003 -0.000000 0.000005 -0.000003 -9.273857 -6.154339 -0.000009 -16.444485 -15.228962 19.110823 -0.000026 0.000012 -4.097862 37.837609 91.099212 27.916374 0.000004 0.000018 14.478404 27.967311 -6.904601 21.757078 -0.000000 0.000009 0.194544 -0.607193 17.765488 3.656450 2.766293 -2.718916 0.000001 0.000000 0.000002 9.750571 0.000013 0.062505 -0.000007 0.000001 -0.000001 -8.521002 -0.000024 0.000016 3.934368 17.523967 -0.389743 0.000001 41.622910 -0.000006 0.460571 0.000000 -0.000000 0.000004 37.258369 -0.000000 3.399547 -3.665577 10.003598 0.000003 3.234154 -0.000004 0.000001 0.000000 -0.000001 -0.000000 -0.000006 -12.665963 -4.773458 0.000001 0.000001 0.000001 -0.000000 -2.833070 0.000000 -0.000000 -0.000001 8.521003 -0.000035 0.000016 -13.299235 -8.520722 -7.057788 0.000001 41.622906 -0.000002 22.348514 -0.000005 0.000001 0.000002 37.258396 -0.000001 3.121328 12.305895 16.854899 -0.000001 3.234146 -0.000004 -0.000000 -0.000001 -0.000001 0.000003 -0.000010 -12.665955 0.334658 -0.000001 -0.000002 -0.000000 -0.000007 -4.326119 -0.000000 -0.000001 0.000002 
